P3
# CREATOR: GIMP PNM Filter Version 1.1
64 64
255
255
255
255
255
255
255
255
255
255
255
255
255
255
255
255
255
255
255
255
255
255
255
255
255
255
255
255
255
255
255
255
255
255
255
255
255
255
255
255
255
255
255
255
255
255
255
255
255
255
255
255
255
255
255
255
255
255
255
255
255
255
255
255
255
255
255
255
255
255
255
255
255
255
255
255
255
255
255
255
255
255
255
255
255
241
241
241
212
212
212
207
207
207
207
207
207
218
218
218
252
252
252
255
255
255
255
255
255
255
255
255
255
255
255
255
255
255
255
255
255
255
255
255
255
255
255
255
255
255
255
255
255
255
255
255
255
255
255
255
255
255
255
255
255
255
255
255
255
255
255
255
255
255
255
255
255
255
255
255
255
255
255
255
255
255
255
255
255
255
255
255
255
255
255
255
255
255
255
255
255
255
255
255
255
255
255
255
255
255
255
255
255
255
255
255
255
255
255
255
255
255
255
255
255
255
255
255
255
255
255
255
255
255
255
255
255
255
255
255
255
255
255
255
255
255
255
255
255
255
255
255
255
255
255
255
255
255
255
255
255
255
255
255
255
255
255
255
255
255
255
255
255
255
255
255
255
255
255
255
255
255
255
255
255
255
255
255
255
255
255
189
189
189
113
113
113
95
95
95
96
96
96
93
93
93
92
92
92
84
84
84
86
86
86
132
132
132
223
223
223
255
255
255
255
255
255
255
255
255
255
255
255
255
255
255
255
255
255
255
255
255
255
255
255
255
255
255
255
255
255
255
255
255
255
255
255
255
255
255
255
255
255
255
255
255
255
255
255
255
255
255
255
255
255
255
255
255
255
255
255
255
255
255
255
255
255
255
255
255
255
255
255
255
255
255
255
255
255
255
255
255
255
255
255
255
255
255
255
255
255
255
255
255
255
255
255
255
255
255
255
255
255
255
255
255
255
255
255
255
255
255
255
255
255
255
255
255
255
255
255
255
255
255
255
255
255
255
255
255
255
255
255
255
255
255
255
255
255
255
255
255
255
255
255
255
255
255
255
255
255
255
255
255
255
255
255
220
220
220
90
90
90
104
104
104
172
172
172
201
201
201
205
205
205
205
205
205
204
204
204
204
204
204
181
181
181
126
126
126
58
58
58
137
137
137
247
247
247
255
255
255
255
255
255
255
255
255
255
255
255
255
255
255
255
255
255
255
255
255
255
255
255
255
255
255
255
255
255
255
255
255
255
255
255
255
255
255
255
255
255
255
255
255
255
255
255
255
255
255
255
255
255
255
255
255
255
255
255
255
255
255
255
255
255
255
255
255
255
255
255
255
255
255
255
255
255
255
255
255
255
255
255
255
255
255
255
255
255
255
255
255
255
255
255
255
255
255
255
255
255
255
255
255
255
255
255
255
255
255
255
255
255
255
255
255
255
255
255
255
255
255
255
255
255
255
255
255
255
255
255
255
255
255
255
255
255
255
255
255
255
255
255
255
255
255
218
218
218
55
55
55
131
131
131
170
170
170
165
165
165
162
162
162
160
160
160
160
160
160
160
160
160
160
160
160
162
162
162
167
167
167
150
150
150
46
46
46
88
88
88
238
238
238
255
255
255
255
255
255
255
255
255
255
255
255
255
255
255
255
255
255
255
255
255
255
255
255
255
255
255
255
255
255
255
255
255
255
255
255
255
255
255
255
255
255
255
255
255
255
255
255
255
255
255
255
255
255
255
255
255
255
255
255
255
255
255
255
255
255
255
255
255
255
255
255
255
255
255
255
255
255
255
255
255
255
255
255
255
255
255
255
255
255
255
255
255
255
255
255
255
255
255
255
255
255
255
255
255
255
255
255
255
255
255
255
255
255
255
255
255
255
255
255
255
255
255
255
255
255
255
255
255
255
255
255
255
255
255
255
255
255
255
255
255
253
253
253
71
71
71
78
78
78
135
135
135
127
127
127
127
127
127
127
127
127
126
126
126
126
126
126
126
126
126
125
125
125
125
125
125
125
125
125
130
130
130
105
105
105
6
6
6
95
95
95
246
246
246
255
255
255
255
255
255
255
255
255
255
255
255
255
255
255
255
255
255
255
255
255
255
255
255
255
255
255
255
255
255
255
255
255
255
255
255
255
255
255
255
255
255
255
255
255
255
255
255
255
255
255
255
255
255
255
255
255
255
255
255
255
255
255
255
255
255
255
255
255
255
255
255
255
255
255
255
255
255
255
255
255
255
255
255
255
255
255
255
255
255
255
255
255
255
255
255
255
255
255
255
255
255
255
255
255
255
255
255
255
255
255
255
255
255
255
255
255
255
255
255
255
255
255
255
255
255
255
255
255
255
255
255
255
255
255
255
255
255
189
189
189
1
1
1
77
77
77
97
97
97
95
95
95
94
94
94
94
94
94
94
94
94
94
94
94
93
93
93
93
93
93
93
93
93
92
92
92
93
93
93
90
90
90
16
16
16
0
0
0
162
162
162
255
255
255
255
255
255
255
255
255
255
255
255
255
255
255
255
255
255
255
255
255
255
255
255
255
255
255
255
255
255
255
255
255
255
255
255
255
255
255
255
255
255
255
255
255
255
255
255
255
255
255
255
255
255
255
255
255
255
255
255
255
255
255
255
255
255
255
255
255
255
255
255
255
255
255
255
255
255
255
255
255
255
255
255
255
255
255
255
255
255
255
255
255
255
255
255
255
255
255
255
255
255
255
255
255
255
255
255
255
255
255
255
255
255
255
255
255
255
255
255
255
255
255
255
255
255
255
255
255
255
255
255
255
255
255
255
255
255
124
124
124
0
0
0
44
44
44
66
66
66
64
64
64
64
64
64
63
63
63
63
63
63
63
63
63
63
63
63
62
62
62
62
62
62
62
62
62
63
63
63
55
55
55
5
5
5
0
0
0
59
59
59
233
233
233
255
255
255
255
255
255
255
255
255
255
255
255
255
255
255
255
255
255
255
255
255
255
255
255
255
255
255
255
255
255
255
255
255
255
255
255
255
255
255
255
255
255
255
255
255
255
255
255
255
255
255
255
255
255
255
255
255
255
255
255
255
255
255
255
255
255
255
255
255
255
255
255
255
255
255
255
255
255
255
255
255
255
255
255
255
255
255
255
255
255
255
255
255
255
255
255
255
255
255
255
255
255
255
255
255
255
255
255
255
255
255
255
255
255
255
255
255
255
255
255
255
255
255
255
255
255
255
255
255
255
255
255
255
255
255
75
75
75
0
0
0
7
7
7
32
32
32
36
36
36
35
35
35
35
35
35
35
35
35
35
35
35
35
35
35
34
34
34
34
34
34
34
34
34
33
33
33
14
14
14
0
0
0
0
0
0
8
8
8
179
179
179
255
255
255
255
255
255
255
255
255
255
255
255
255
255
255
255
255
255
255
255
255
255
255
255
255
255
255
255
255
255
255
255
255
255
255
255
255
255
255
255
255
255
255
255
255
255
255
255
255
255
255
255
255
255
255
255
255
255
255
255
255
255
255
255
255
255
255
255
255
255
255
255
255
255
255
255
255
255
255
255
255
255
255
255
255
255
255
255
255
255
255
255
255
255
255
255
255
255
255
255
255
255
255
255
255
255
255
255
255
255
255
255
255
255
255
255
255
255
255
255
255
255
255
255
255
255
255
255
255
255
255
255
248
248
248
50
50
50
0
0
0
0
0
0
0
0
0
6
6
6
11
11
11
11
11
11
11
11
11
11
11
11
6
6
6
3
3
3
5
5
5
3
3
3
2
2
2
0
0
0
0
0
0
0
0
0
0
0
0
114
114
114
247
247
247
255
255
255
255
255
255
255
255
255
255
255
255
255
255
255
255
255
255
255
255
255
255
255
255
255
255
255
255
255
255
255
255
255
255
255
255
255
255
255
255
255
255
255
255
255
255
255
255
255
255
255
255
255
255
255
255
255
255
255
255
255
255
255
255
255
255
255
255
255
255
255
255
255
255
255
255
255
255
255
255
255
255
255
255
255
255
255
255
255
255
255
255
255
255
255
255
255
255
255
255
255
255
255
255
255
255
255
255
255
255
255
255
255
255
255
255
255
255
255
255
255
255
255
255
255
255
255
255
255
243
243
243
30
30
30
0
0
0
20
20
20
72
72
72
32
32
32
0
0
0
0
0
0
0
0
0
0
0
0
35
35
35
144
144
144
177
177
177
117
117
117
11
11
11
0
0
0
0
0
0
0
0
0
0
0
0
67
67
67
228
228
228
255
255
255
255
255
255
255
255
255
255
255
255
255
255
255
255
255
255
255
255
255
255
255
255
255
255
255
255
255
255
255
255
255
255
255
255
255
255
255
255
255
255
255
255
255
255
255
255
255
255
255
255
255
255
255
255
255
255
255
255
255
255
255
255
255
255
255
255
255
255
255
255
255
255
255
255
255
255
255
255
255
255
255
255
255
255
255
255
255
255
255
255
255
255
255
255
255
255
255
255
255
255
255
255
255
255
255
255
255
255
255
255
255
255
255
255
255
255
255
255
255
255
255
255
255
255
255
255
255
242
242
242
26
26
26
4
4
4
181
181
181
255
255
255
228
228
228
48
48
48
0
0
0
0
0
0
24
24
24
214
214
214
255
255
255
255
255
255
255
255
255
134
134
134
0
0
0
0
0
0
0
0
0
0
0
0
36
36
36
207
207
207
255
255
255
255
255
255
255
255
255
255
255
255
255
255
255
255
255
255
255
255
255
255
255
255
255
255
255
255
255
255
255
255
255
255
255
255
255
255
255
255
255
255
255
255
255
255
255
255
255
255
255
255
255
255
255
255
255
255
255
255
255
255
255
255
255
255
255
255
255
255
255
255
255
255
255
255
255
255
255
255
255
255
255
255
255
255
255
255
255
255
255
255
255
255
255
255
255
255
255
255
255
255
255
255
255
255
255
255
255
255
255
255
255
255
255
255
255
255
255
255
255
255
255
255
255
255
255
255
255
241
241
241
25
25
25
59
59
59
234
234
234
181
181
181
235
235
235
172
172
172
1
1
1
0
0
0
121
121
121
255
255
255
208
208
208
196
196
196
224
224
224
228
228
228
42
42
42
0
0
0
0
0
0
0
0
0
28
28
28
193
193
193
253
253
253
255
255
255
255
255
255
255
255
255
255
255
255
255
255
255
255
255
255
255
255
255
255
255
255
255
255
255
255
255
255
255
255
255
255
255
255
255
255
255
255
255
255
255
255
255
255
255
255
255
255
255
255
255
255
255
255
255
255
255
255
255
255
255
255
255
255
255
255
255
255
255
255
255
255
255
255
255
255
255
255
255
255
255
255
255
255
255
255
255
255
255
255
255
255
255
255
255
255
255
255
255
255
255
255
255
255
255
255
255
255
255
255
255
255
255
255
255
255
255
255
255
255
255
255
255
255
242
242
242
32
32
32
87
87
87
167
167
167
144
144
144
162
162
162
210
211
212
15
17
18
0
0
0
158
159
160
231
231
231
136
136
136
163
163
163
150
150
150
231
231
231
98
98
98
0
0
0
0
0
0
0
0
0
28
28
28
188
188
188
251
251
251
255
255
255
255
255
255
255
255
255
255
255
255
255
255
255
255
255
255
255
255
255
255
255
255
255
255
255
255
255
255
255
255
255
255
255
255
255
255
255
255
255
255
255
255
255
255
255
255
255
255
255
255
255
255
255
255
255
255
255
255
255
255
255
255
255
255
255
255
255
255
255
255
255
255
255
255
255
255
255
255
255
255
255
255
255
255
255
255
255
255
255
255
255
255
255
255
255
255
255
255
255
255
255
255
255
255
255
255
255
255
255
255
255
255
255
255
255
255
255
255
255
255
255
255
255
255
245
245
245
50
50
50
76
76
76
140
140
140
113
113
113
98
99
103
187
180
179
44
30
13
21
7
0
162
152
141
191
191
195
101
102
104
114
114
114
86
86
86
201
201
201
113
113
113
0
0
0
0
0
0
0
0
0
39
39
39
192
192
192
252
252
252
255
255
255
255
255
255
255
255
255
255
255
255
255
255
255
255
255
255
255
255
255
255
255
255
255
255
255
255
255
255
255
255
255
255
255
255
255
255
255
255
255
255
255
255
255
255
255
255
255
255
255
255
255
255
255
255
255
255
255
255
255
255
255
255
255
255
255
255
255
255
255
255
255
255
255
255
255
255
255
255
255
255
255
255
255
255
255
255
255
255
255
255
255
255
255
255
255
255
255
255
255
255
255
255
255
255
255
255
255
255
255
255
255
255
255
255
255
255
255
255
255
255
255
255
255
255
247
247
247
51
51
51
46
46
46
135
136
137
14
13
19
89
62
19
208
178
37
219
199
52
220
200
71
222
188
62
171
132
52
45
32
21
18
19
24
43
46
50
205
206
207
84
84
84
0
0
0
0
0
0
0
0
0
30
30
30
194
194
194
253
253
253
255
255
255
255
255
255
255
255
255
255
255
255
255
255
255
255
255
255
255
255
255
255
255
255
255
255
255
255
255
255
255
255
255
255
255
255
255
255
255
255
255
255
255
255
255
255
255
255
255
255
255
255
255
255
255
255
255
255
255
255
255
255
255
255
255
255
255
255
255
255
255
255
255
255
255
255
255
255
255
255
255
255
255
255
255
255
255
255
255
255
255
255
255
255
255
255
255
255
255
255
255
255
255
255
255
255
255
255
255
255
255
255
255
255
255
255
255
255
255
255
255
255
255
255
255
255
250
250
250
71
71
71
1
2
4
143
137
139
150
115
36
234
213
32
255
255
164
255
255
224
255
255
233
255
255
218
251
229
131
203
155
38
135
88
3
152
122
78
178
170
161
23
24
26
0
0
0
0
0
0
0
0
0
14
14
14
182
182
182
252
252
252
255
255
255
255
255
255
255
255
255
255
255
255
255
255
255
255
255
255
255
255
255
255
255
255
255
255
255
255
255
255
255
255
255
255
255
255
255
255
255
255
255
255
255
255
255
255
255
255
255
255
255
255
255
255
255
255
255
255
255
255
255
255
255
255
255
255
255
255
255
255
255
255
255
255
255
255
255
255
255
255
255
255
255
255
255
255
255
255
255
255
255
255
255
255
255
255
255
255
255
255
255
255
255
255
255
255
255
255
255
255
255
255
255
255
255
255
255
255
255
255
255
255
255
255
255
255
253
253
253
83
83
83
13
4
1
157
118
17
255
244
50
255
255
156
255
252
186
255
249
179
255
246
178
255
243
180
255
242
185
255
240
168
255
228
140
249
190
68
200
128
13
43
24
1
0
0
0
0
0
0
0
0
0
2
2
2
148
148
148
250
250
250
255
255
255
255
255
255
255
255
255
255
255
255
255
255
255
255
255
255
255
255
255
255
255
255
255
255
255
255
255
255
255
255
255
255
255
255
255
255
255
255
255
255
255
255
255
255
255
255
255
255
255
255
255
255
255
255
255
255
255
255
255
255
255
255
255
255
255
255
255
255
255
255
255
255
255
255
255
255
255
255
255
255
255
255
255
255
255
255
255
255
255
255
255
255
255
255
255
255
255
255
255
255
255
255
255
255
255
255
255
255
255
255
255
255
255
255
255
255
255
255
255
255
255
255
255
255
255
255
255
102
102
102
105
74
7
255
243
21
255
255
111
255
250
123
255
245
118
255
239
118
255
234
118
255
229
119
255
224
119
255
218
120
255
212
116
255
203
97
255
176
17
102
60
2
0
0
0
0
0
0
0
0
0
0
0
0
106
106
106
243
243
243
255
255
255
255
255
255
255
255
255
255
255
255
255
255
255
255
255
255
255
255
255
255
255
255
255
255
255
255
255
255
255
255
255
255
255
255
255
255
255
255
255
255
255
255
255
255
255
255
255
255
255
255
255
255
255
255
255
255
255
255
255
255
255
255
255
255
255
255
255
255
255
255
255
255
255
255
255
255
255
255
255
255
255
255
255
255
255
255
255
255
255
255
255
255
255
255
255
255
255
255
255
255
255
255
255
255
255
255
255
255
255
255
255
255
255
255
255
255
255
255
255
255
255
255
255
255
255
255
255
118
118
118
119
88
8
255
254
11
255
248
41
255
239
55
255
232
58
255
224
58
255
216
57
255
207
51
255
196
39
255
182
22
255
171
9
255
170
1
251
162
0
76
44
5
0
0
0
0
0
0
0
0
0
0
0
0
52
52
52
223
223
223
255
255
255
255
255
255
255
255
255
255
255
255
255
255
255
255
255
255
255
255
255
255
255
255
255
255
255
255
255
255
255
255
255
255
255
255
255
255
255
255
255
255
255
255
255
255
255
255
255
255
255
255
255
255
255
255
255
255
255
255
255
255
255
255
255
255
255
255
255
255
255
255
255
255
255
255
255
255
255
255
255
255
255
255
255
255
255
255
255
255
255
255
255
255
255
255
255
255
255
255
255
255
255
255
255
255
255
255
255
255
255
255
255
255
255
255
255
255
255
255
255
255
255
255
255
255
255
255
255
137
137
137
51
32
17
229
188
21
255
236
0
255
226
2
255
216
6
255
206
6
255
196
4
255
186
0
255
174
0
255
168
0
255
167
0
250
158
0
215
146
44
70
62
56
0
0
0
0
0
0
0
0
0
0
0
0
9
9
9
178
178
178
255
255
255
255
255
255
255
255
255
255
255
255
255
255
255
255
255
255
255
255
255
255
255
255
255
255
255
255
255
255
255
255
255
255
255
255
255
255
255
255
255
255
255
255
255
255
255
255
255
255
255
255
255
255
255
255
255
255
255
255
255
255
255
255
255
255
255
255
255
255
255
255
255
255
255
255
255
255
255
255
255
255
255
255
255
255
255
255
255
255
255
255
255
255
255
255
255
255
255
255
255
255
255
255
255
255
255
255
255
255
255
255
255
255
255
255
255
255
255
255
255
255
255
255
255
255
255
255
255
139
139
139
32
34
38
225
199
174
243
189
41
254
213
0
255
206
0
255
195
0
255
185
0
255
175
0
255
169
0
252
160
0
226
148
30
207
163
109
228
219
210
135
136
138
0
0
0
0
0
0
0
0
0
0
0
0
0
0
0
95
95
95
244
244
244
255
255
255
255
255
255
255
255
255
255
255
255
255
255
255
255
255
255
255
255
255
255
255
255
255
255
255
255
255
255
255
255
255
255
255
255
255
255
255
255
255
255
255
255
255
255
255
255
255
255
255
255
255
255
255
255
255
255
255
255
255
255
255
255
255
255
255
255
255
255
255
255
255
255
255
255
255
255
255
255
255
255
255
255
255
255
255
255
255
255
255
255
255
255
255
255
255
255
255
255
255
255
255
255
255
255
255
255
255
255
255
255
255
255
255
255
255
255
255
255
255
255
255
255
255
255
94
94
94
34
34
34
239
242
247
251
229
213
244
176
50
254
188
0
255
184
0
255
173
0
255
164
0
244
154
9
221
163
92
220
208
200
240
244
249
255
255
255
220
220
220
17
17
17
0
0
0
0
0
0
0
0
0
0
0
0
16
16
16
194
194
194
255
255
255
255
255
255
255
255
255
255
255
255
255
255
255
255
255
255
255
255
255
255
255
255
255
255
255
255
255
255
255
255
255
255
255
255
255
255
255
255
255
255
255
255
255
255
255
255
255
255
255
255
255
255
255
255
255
255
255
255
255
255
255
255
255
255
255
255
255
255
255
255
255
255
255
255
255
255
255
255
255
255
255
255
255
255
255
255
255
255
255
255
255
255
255
255
255
255
255
255
255
255
255
255
255
255
255
255
255
255
255
255
255
255
255
255
255
255
255
255
255
255
255
214
214
214
15
15
15
31
31
31
237
237
237
255
255
255
252
235
223
249
188
110
249
180
71
245
173
67
234
171
91
225
197
171
236
236
239
253
255
255
255
255
255
254
254
254
255
255
255
126
126
126
0
0
0
0
0
0
0
0
0
0
0
0
0
0
0
85
85
85
244
244
244
255
255
255
255
255
255
255
255
255
255
255
255
255
255
255
255
255
255
255
255
255
255
255
255
255
255
255
255
255
255
255
255
255
255
255
255
255
255
255
255
255
255
255
255
255
255
255
255
255
255
255
255
255
255
255
255
255
255
255
255
255
255
255
255
255
255
255
255
255
255
255
255
255
255
255
255
255
255
255
255
255
255
255
255
255
255
255
255
255
255
255
255
255
255
255
255
255
255
255
255
255
255
255
255
255
255
255
255
255
255
255
255
255
255
255
255
255
254
254
254
79
79
79
0
0
0
71
71
71
251
251
251
255
255
255
255
255
255
254
254
255
248
244
245
242
238
239
240
240
243
248
251
254
255
255
255
255
255
255
254
254
254
254
254
254
255
255
255
231
231
231
30
30
30
0
0
0
0
0
0
0
0
0
0
0
0
2
2
2
164
164
164
255
255
255
255
255
255
255
255
255
255
255
255
255
255
255
255
255
255
255
255
255
255
255
255
255
255
255
255
255
255
255
255
255
255
255
255
255
255
255
255
255
255
255
255
255
255
255
255
255
255
255
255
255
255
255
255
255
255
255
255
255
255
255
255
255
255
255
255
255
255
255
255
255
255
255
255
255
255
255
255
255
255
255
255
255
255
255
255
255
255
255
255
255
255
255
255
255
255
255
255
255
255
255
255
255
255
255
255
255
255
255
255
255
255
255
255
255
132
132
132
0
0
0
23
23
23
211
211
211
255
255
255
255
255
255
255
255
255
255
255
255
255
255
255
255
255
255
255
255
255
255
255
255
254
254
254
254
254
254
254
254
254
252
252
252
252
252
252
255
255
255
109
109
109
0
0
0
0
0
0
0
0
0
0
0
0
0
0
0
34
34
34
214
214
214
255
255
255
255
255
255
255
255
255
255
255
255
255
255
255
255
255
255
255
255
255
255
255
255
255
255
255
255
255
255
255
255
255
255
255
255
255
255
255
255
255
255
255
255
255
255
255
255
255
255
255
255
255
255
255
255
255
255
255
255
255
255
255
255
255
255
255
255
255
255
255
255
255
255
255
255
255
255
255
255
255
255
255
255
255
255
255
255
255
255
255
255
255
255
255
255
255
255
255
255
255
255
255
255
255
255
255
255
255
255
255
178
178
178
4
4
4
0
0
0
153
153
153
255
255
255
255
255
255
255
255
255
255
255
255
255
255
255
255
255
255
255
255
255
255
255
255
255
255
255
254
254
254
254
254
254
252
252
252
251
251
251
251
251
251
255
255
255
186
186
186
0
0
0
0
0
0
0
0
0
0
0
0
0
0
0
0
0
0
82
82
82
243
243
243
255
255
255
255
255
255
255
255
255
255
255
255
255
255
255
255
255
255
255
255
255
255
255
255
255
255
255
255
255
255
255
255
255
255
255
255
255
255
255
255
255
255
255
255
255
255
255
255
255
255
255
255
255
255
255
255
255
255
255
255
255
255
255
255
255
255
255
255
255
255
255
255
255
255
255
255
255
255
255
255
255
255
255
255
255
255
255
255
255
255
255
255
255
255
255
255
255
255
255
255
255
255
255
255
255
219
219
219
27
27
27
0
0
0
52
52
52
247
247
247
255
255
255
255
255
255
255
255
255
255
255
255
255
255
255
255
255
255
255
255
255
255
255
255
254
254
254
254
254
254
252
252
252
251
251
251
251
251
251
249
249
249
251
251
251
234
234
234
37
37
37
0
0
0
0
0
0
0
0
0
0
0
0
0
0
0
0
0
0
135
135
135
255
255
255
255
255
255
255
255
255
255
255
255
255
255
255
255
255
255
255
255
255
255
255
255
255
255
255
255
255
255
255
255
255
255
255
255
255
255
255
255
255
255
255
255
255
255
255
255
255
255
255
255
255
255
255
255
255
255
255
255
255
255
255
255
255
255
255
255
255
255
255
255
255
255
255
255
255
255
255
255
255
255
255
255
255
255
255
255
255
255
255
255
255
255
255
255
255
255
255
255
255
255
251
251
251
73
73
73
1
1
1
0
0
0
146
146
146
255
255
255
255
255
255
255
255
255
255
255
255
255
255
255
255
255
255
255
255
255
255
255
255
254
254
254
254
254
254
252
252
252
251
251
251
251
251
251
249
249
249
248
248
248
248
248
248
255
255
255
114
114
114
0
0
0
2
2
2
1
1
1
0
0
0
0
0
0
0
0
0
13
13
13
188
188
188
255
255
255
255
255
255
255
255
255
255
255
255
255
255
255
255
255
255
255
255
255
255
255
255
255
255
255
255
255
255
255
255
255
255
255
255
255
255
255
255
255
255
255
255
255
255
255
255
255
255
255
255
255
255
255
255
255
255
255
255
255
255
255
255
255
255
255
255
255
255
255
255
255
255
255
255
255
255
255
255
255
255
255
255
255
255
255
255
255
255
255
255
255
255
255
255
255
255
255
153
153
153
3
3
3
3
3
3
18
18
18
221
221
221
255
255
255
255
255
255
255
255
255
255
255
255
255
255
255
255
255
255
255
255
255
254
254
254
254
254
254
252
252
252
251
251
251
251
251
251
249
249
249
248
248
248
247
247
247
246
246
246
250
250
250
198
198
198
14
14
14
4
4
4
4
4
4
3
3
3
2
2
2
1
1
1
0
0
0
53
53
53
232
232
232
255
255
255
255
255
255
255
255
255
255
255
255
255
255
255
255
255
255
255
255
255
255
255
255
255
255
255
255
255
255
255
255
255
255
255
255
255
255
255
255
255
255
255
255
255
255
255
255
255
255
255
255
255
255
255
255
255
255
255
255
255
255
255
255
255
255
255
255
255
255
255
255
255
255
255
255
255
255
255
255
255
255
255
255
255
255
255
255
255
255
255
255
255
236
236
236
37
37
37
6
6
6
0
0
0
71
71
71
253
253
253
255
255
255
255
255
255
255
255
255
255
255
255
255
255
255
255
255
255
254
254
254
254
254
254
252
252
252
251
251
251
251
251
251
249
249
249
248
248
248
247
247
247
246
246
246
245
245
245
244
244
244
246
246
246
86
86
86
0
0
0
7
7
7
6
6
6
5
5
5
4
4
4
3
3
3
1
1
1
126
126
126
253
253
253
255
255
255
255
255
255
255
255
255
255
255
255
255
255
255
255
255
255
255
255
255
255
255
255
255
255
255
255
255
255
255
255
255
255
255
255
255
255
255
255
255
255
255
255
255
255
255
255
255
255
255
255
255
255
255
255
255
255
255
255
255
255
255
255
255
255
255
255
255
255
255
255
255
255
255
255
255
255
255
255
255
255
255
255
255
255
255
255
255
255
144
144
144
8
8
8
9
9
9
0
0
0
136
136
136
255
255
255
255
255
255
255
255
255
255
255
255
255
255
255
255
255
255
254
254
254
254
254
254
252
252
252
251
251
251
251
251
251
249
249
249
248
248
248
247
247
247
246
246
246
245
245
245
243
243
243
242
242
242
246
246
246
194
194
194
18
18
18
8
8
8
8
8
8
7
7
7
6
6
6
5
5
5
4
4
4
23
23
23
201
201
201
255
255
255
255
255
255
255
255
255
255
255
255
255
255
255
255
255
255
255
255
255
255
255
255
255
255
255
255
255
255
255
255
255
255
255
255
255
255
255
255
255
255
255
255
255
255
255
255
255
255
255
255
255
255
255
255
255
255
255
255
255
255
255
255
255
255
255
255
255
255
255
255
255
255
255
255
255
255
255
255
255
255
255
255
255
255
255
244
244
244
49
49
49
10
10
10
8
8
8
32
32
32
225
225
225
255
255
255
255
255
255
255
255
255
255
255
255
255
255
255
254
254
254
254
254
254
252
252
252
251
251
251
251
251
251
250
250
250
248
248
248
247
247
247
246
246
246
245
245
245
243
243
243
242
242
242
240
240
240
239
239
239
243
243
243
95
95
95
5
5
5
11
11
11
10
10
10
9
9
9
7
7
7
7
7
7
5
5
5
103
103
103
247
247
247
255
255
255
255
255
255
255
255
255
255
255
255
255
255
255
255
255
255
255
255
255
255
255
255
255
255
255
255
255
255
255
255
255
255
255
255
255
255
255
255
255
255
255
255
255
255
255
255
255
255
255
255
255
255
255
255
255
255
255
255
255
255
255
255
255
255
255
255
255
255
255
255
255
255
255
255
255
255
255
255
255
255
255
255
178
178
178
12
12
12
13
13
13
5
5
5
128
128
128
255
255
255
255
255
255
255
255
255
255
255
255
254
254
254
254
254
254
254
254
254
252
252
252
251
251
251
251
251
251
249
249
249
249
249
249
247
247
247
246
246
246
245
245
245
243
243
243
242
242
242
240
240
240
238
238
238
236
236
236
242
242
242
182
182
182
16
16
16
13
13
13
13
13
13
11
11
11
10
10
10
9
9
9
7
7
7
24
24
24
197
197
197
255
255
255
255
255
255
255
255
255
255
255
255
255
255
255
255
255
255
255
255
255
255
255
255
255
255
255
255
255
255
255
255
255
255
255
255
255
255
255
255
255
255
255
255
255
255
255
255
255
255
255
255
255
255
255
255
255
255
255
255
255
255
255
255
255
255
255
255
255
255
255
255
255
255
255
255
255
255
255
255
255
255
255
255
99
99
99
15
15
15
11
11
11
45
45
45
233
233
233
255
255
255
255
255
255
255
255
255
254
254
254
254
254
254
254
254
254
252
252
252
251
251
251
251
251
251
250
250
250
248
248
248
247
247
247
246
246
246
245
245
245
243
243
243
242
242
242
240
240
240
238
238
238
237
237
237
235
235
235
236
236
236
225
225
225
59
59
59
11
11
11
15
15
15
14
14
14
13
13
13
11
11
11
10
10
10
9
9
9
114
114
114
248
248
248
255
255
255
255
255
255
255
255
255
255
255
255
255
255
255
255
255
255
255
255
255
255
255
255
255
255
255
255
255
255
255
255
255
255
255
255
255
255
255
255
255
255
255
255
255
255
255
255
255
255
255
255
255
255
255
255
255
255
255
255
255
255
255
255
255
255
255
255
255
255
255
255
255
255
255
255
255
255
229
229
229
37
37
37
17
17
17
10
10
10
139
139
139
255
255
255
255
255
255
255
255
255
254
254
254
254
254
254
254
254
254
252
252
252
251
251
251
251
251
251
250
250
250
248
248
248
247
247
247
246
246
246
245
245
245
243
243
243
242
242
242
240
240
240
238
238
238
237
237
237
235
235
235
233
233
233
232
232
232
239
239
239
105
105
105
10
10
10
17
17
17
17
17
17
15
15
15
14
14
14
13
13
13
11
11
11
43
43
43
215
215
215
255
255
255
255
255
255
255
255
255
255
255
255
255
255
255
255
255
255
255
255
255
255
255
255
255
255
255
255
255
255
255
255
255
255
255
255
255
255
255
255
255
255
255
255
255
255
255
255
255
255
255
255
255
255
255
255
255
255
255
255
255
255
255
255
255
255
255
255
255
255
255
255
255
255
255
255
255
255
156
156
156
19
19
19
18
18
18
31
31
31
221
221
221
255
255
255
255
255
255
254
254
254
254
254
254
254
254
254
252
252
252
251
251
251
251
251
251
250
250
250
248
248
248
247
247
247
246
246
246
245
245
245
243
243
243
242
242
242
240
240
240
238
238
238
237
237
237
235
235
235
233
233
233
231
231
231
230
230
230
237
237
237
143
143
143
17
17
17
20
20
20
19
19
19
17
17
17
16
16
16
15
15
15
14
14
14
12
12
12
157
157
157
254
254
254
255
255
255
255
255
255
255
255
255
255
255
255
255
255
255
255
255
255
255
255
255
255
255
255
255
255
255
255
255
255
255
255
255
255
255
255
255
255
255
255
255
255
255
255
255
255
255
255
255
255
255
255
255
255
255
255
255
255
255
255
255
255
255
255
255
255
255
255
255
255
255
255
250
250
250
70
70
70
21
21
21
16
16
16
71
71
71
247
247
247
255
255
255
254
254
254
254
254
254
254
254
254
252
252
252
251
251
251
251
251
251
250
250
250
248
248
248
247
247
247
246
246
246
245
245
245
243
243
243
242
242
242
240
240
240
239
239
239
237
237
237
235
235
235
233
233
233
231
231
231
230
230
230
228
228
228
232
232
232
169
169
169
23
23
23
22
22
22
22
22
22
20
20
20
19
19
19
17
17
17
16
16
16
15
15
15
100
100
100
240
240
240
255
255
255
255
255
255
255
255
255
255
255
255
255
255
255
255
255
255
255
255
255
255
255
255
255
255
255
255
255
255
255
255
255
255
255
255
255
255
255
255
255
255
255
255
255
255
255
255
255
255
255
255
255
255
255
255
255
255
255
255
255
255
255
255
255
255
255
255
255
255
255
255
167
167
167
22
22
22
23
23
23
15
15
15
119
119
119
255
255
255
254
254
254
254
254
254
254
254
254
252
252
252
252
252
252
251
251
251
250
250
250
248
248
248
247
247
247
246
246
246
245
245
245
243
243
243
242
242
242
240
240
240
239
239
239
237
237
237
235
235
235
233
233
233
232
232
232
230
230
230
228
228
228
226
226
226
228
228
228
190
190
190
30
30
30
25
25
25
24
24
24
23
23
23
21
21
21
20
20
20
18
18
18
17
17
17
56
56
56
219
219
219
255
255
255
255
255
255
255
255
255
255
255
255
255
255
255
255
255
255
255
255
255
255
255
255
255
255
255
255
255
255
255
255
255
255
255
255
255
255
255
255
255
255
255
255
255
255
255
255
255
255
255
255
255
255
255
255
255
255
255
255
255
255
255
255
255
255
255
255
255
238
238
238
58
58
58
24
24
24
25
25
25
22
22
22
168
168
168
255
255
255
254
254
254
253
253
253
252
252
252
252
252
252
251
251
251
250
250
250
248
248
248
247
247
247
246
246
246
245
245
245
243
243
243
242
242
242
240
240
240
239
239
239
237
237
237
236
236
236
233
233
233
231
231
231
230
230
230
228
228
228
226
226
226
224
224
224
225
225
225
199
199
199
33
33
33
28
28
28
27
27
27
25
25
25
23
23
23
22
22
22
21
21
21
19
19
19
34
34
34
191
191
191
254
254
254
255
255
255
255
255
255
255
255
255
255
255
255
255
255
255
255
255
255
255
255
255
255
255
255
255
255
255
255
255
255
255
255
255
255
255
255
255
255
255
255
255
255
255
255
255
255
255
255
255
255
255
255
255
255
255
255
255
255
255
255
255
255
255
255
255
255
150
150
150
25
25
25
26
26
26
27
27
27
28
28
28
196
196
196
255
255
255
253
253
253
252
252
252
252
252
252
251
251
251
250
250
250
248
248
248
247
247
247
246
246
246
245
245
245
243
243
243
242
242
242
240
240
240
239
239
239
237
237
237
236
236
236
234
234
234
231
231
231
230
230
230
228
228
228
226
226
226
224
224
224
222
222
222
223
223
223
198
198
198
40
40
40
29
29
29
29
29
29
28
28
28
26
26
26
24
24
24
23
23
23
22
22
22
27
27
27
169
169
169
251
251
251
255
255
255
255
255
255
255
255
255
255
255
255
255
255
255
255
255
255
255
255
255
255
255
255
255
255
255
255
255
255
255
255
255
255
255
255
255
255
255
255
255
255
255
255
255
255
255
255
255
255
255
255
255
255
255
255
255
255
255
255
255
255
255
255
255
255
88
88
88
27
27
28
27
28
29
28
29
30
33
33
33
217
217
217
255
255
255
252
252
252
252
252
252
251
251
251
250
250
250
248
248
248
247
247
247
246
246
246
245
245
245
243
243
243
242
242
242
240
240
240
239
239
239
237
237
237
236
236
236
234
234
234
231
231
231
230
230
230
228
228
228
226
226
226
224
224
224
222
222
222
220
220
220
221
221
221
203
203
203
56
56
56
29
29
29
28
28
28
25
25
25
24
24
24
24
24
24
24
24
24
24
24
24
29
29
29
161
161
161
247
247
247
255
255
255
255
255
255
255
255
255
255
255
255
255
255
255
255
255
255
255
255
255
255
255
255
255
255
255
255
255
255
255
255
255
255
255
255
255
255
255
255
255
255
255
255
255
255
255
255
255
255
255
255
255
255
255
255
255
255
255
255
255
255
255
255
255
255
105
106
107
27
28
30
37
32
27
32
31
30
32
34
36
214
214
214
255
255
255
252
252
252
251
251
251
250
250
250
248
248
248
247
247
247
246
246
246
245
245
245
243
243
243
242
242
242
240
240
240
239
239
239
237
237
237
236
236
236
234
234
234
231
231
231
230
230
230
228
228
228
226
226
226
224
224
224
222
222
222
220
220
220
219
219
219
219
220
220
201
202
202
55
55
55
41
41
41
70
70
70
89
89
89
83
83
83
55
55
55
29
29
29
25
25
25
37
37
37
170
170
170
246
246
246
255
255
255
255
255
255
255
255
255
255
255
255
255
255
255
255
255
255
255
255
255
255
255
255
255
255
255
255
255
255
255
255
255
255
255
255
255
255
255
255
255
255
255
255
255
255
255
255
255
255
255
255
255
255
255
255
255
255
255
255
255
255
255
255
255
255
157
155
154
124
80
10
207
130
0
161
101
1
53
41
27
194
196
199
255
255
255
251
251
251
250
250
250
248
248
248
247
247
247
246
246
246
244
244
244
243
243
243
242
242
242
240
240
240
239
239
239
237
237
237
236
236
236
234
234
234
232
232
232
230
230
230
228
228
228
226
226
226
224
224
224
222
222
222
220
220
220
219
220
221
215
216
219
210
209
210
176
176
177
53
53
52
94
94
94
112
112
112
114
114
114
114
114
114
110
110
110
78
78
78
33
34
34
61
63
64
188
188
188
250
250
250
255
255
255
255
255
255
255
255
255
255
255
255
255
255
255
255
255
255
255
255
255
255
255
255
255
255
255
255
255
255
255
255
255
255
255
255
255
255
255
255
255
255
255
255
255
255
255
255
255
255
255
255
255
255
255
255
255
255
255
255
255
255
255
253
253
253
199
151
80
254
170
13
255
198
75
255
188
49
182
113
0
111
102
91
224
227
229
255
255
255
248
248
248
247
247
247
246
246
246
244
244
244
243
243
243
242
242
242
240
240
240
239
239
239
237
237
237
236
236
236
234
234
234
232
232
232
231
231
231
229
229
229
226
226
226
224
224
224
222
222
222
220
220
220
219
220
221
210
205
200
192
148
82
213
150
43
172
123
41
48
47
45
39
39
39
38
38
38
38
38
38
38
38
38
39
39
39
41
41
42
31
29
28
108
99
87
212
212
212
254
254
254
255
255
255
255
255
255
255
255
255
255
255
255
255
255
255
255
255
255
255
255
255
255
255
255
255
255
255
255
255
255
255
255
255
255
255
255
255
255
255
255
255
255
255
255
255
255
255
255
255
255
255
255
255
255
255
255
255
255
255
255
255
255
255
212
181
139
241
160
15
255
223
154
255
240
212
255
237
201
255
198
83
153
93
0
73
70
69
198
199
201
254
254
254
247
247
247
244
244
244
243
243
243
242
242
242
240
240
240
239
239
239
237
237
237
236
236
236
234
234
234
232
232
232
230
230
230
229
229
229
226
226
226
224
224
224
222
222
222
220
220
220
218
218
218
218
220
224
195
173
142
235
148
0
255
171
0
201
130
0
13
12
11
0
0
0
0
0
0
0
0
0
0
0
0
0
0
0
0
0
0
122
77
0
204
131
12
203
193
180
255
255
255
255
255
255
255
255
255
255
255
255
255
255
255
255
255
255
255
255
255
255
255
255
255
255
255
255
255
255
255
255
255
255
255
255
255
255
255
255
255
255
255
255
255
255
255
255
255
255
255
255
255
255
255
255
255
255
255
255
255
255
255
220
198
172
219
142
10
255
211
115
255
236
199
255
233
190
255
233
193
255
233
186
250
181
54
116
73
9
51
53
58
175
175
175
251
251
251
245
245
245
242
242
242
240
240
240
239
239
239
237
237
237
236
236
236
234
234
234
232
232
232
230
230
230
229
229
229
226
226
226
224
224
224
222
222
222
220
220
220
218
218
218
216
216
216
216
219
223
191
160
114
249
172
29
255
225
154
196
166
108
21
21
21
30
31
31
15
15
15
8
8
8
10
10
10
0
0
3
60
54
43
249
197
97
252
168
14
179
156
124
247
247
247
255
255
255
255
255
255
255
255
255
255
255
255
255
255
255
255
255
255
255
255
255
255
255
255
255
255
255
255
255
255
255
255
255
255
255
255
255
255
255
255
255
255
255
255
255
255
255
255
249
248
249
237
225
213
224
197
160
214
166
96
224
148
9
255
198
75
255
229
176
255
229
176
255
229
175
255
229
175
255
230
179
255
224
152
224
153
21
77
57
31
48
51
54
151
151
151
242
242
242
244
244
244
239
239
239
237
237
237
236
236
236
234
234
234
232
232
232
230
230
230
229
229
229
227
227
227
224
224
224
222
222
222
220
220
220
218
218
218
216
216
216
214
214
214
214
217
221
190
158
110
249
184
63
255
241
209
247
231
199
90
83
69
21
22
25
32
34
38
30
32
37
19
19
19
76
63
39
227
208
172
255
246
214
246
181
63
160
137
108
236
236
236
255
255
255
255
255
255
255
255
255
255
255
255
255
255
255
255
255
255
255
255
255
255
255
255
255
255
255
255
255
255
255
255
255
255
255
255
255
255
255
255
255
255
255
255
255
235
221
204
214
157
58
227
155
11
245
177
36
255
200
68
255
212
108
255
225
158
255
226
161
255
226
160
255
226
160
255
226
160
255
226
159
255
228
166
255
211
101
179
118
9
54
51
49
49
49
50
121
121
121
227
227
227
242
242
242
236
236
236
234
234
234
232
232
232
230
230
230
229
229
229
227
227
227
225
225
225
222
222
222
220
220
220
218
218
218
216
216
216
214
214
214
212
212
212
211
214
218
191
159
111
250
185
56
255
232
183
255
234
185
248
225
177
156
132
83
104
79
27
103
77
24
158
130
71
248
221
164
255
237
187
255
236
191
252
188
63
165
129
81
233
233
233
255
255
255
255
255
255
255
255
255
255
255
255
255
255
255
255
255
255
255
255
255
255
255
255
255
255
255
255
255
255
255
255
255
255
255
255
255
255
255
255
255
255
255
255
255
213
168
92
255
189
3
255
213
96
255
225
146
255
225
149
255
225
150
255
223
145
255
223
144
255
223
145
255
223
145
255
223
145
255
223
145
255
223
145
255
225
145
249
188
47
122
85
25
52
54
59
52
52
52
97
97
97
210
210
210
237
237
237
232
232
232
230
230
230
229
229
229
227
227
227
225
225
225
223
223
223
220
220
220
218
218
218
216
216
216
214
214
214
212
212
212
209
209
209
208
211
216
192
160
111
250
188
51
255
229
167
255
227
166
255
229
167
255
234
170
255
228
158
255
227
154
255
234
170
255
230
169
255
227
166
255
229
170
255
214
111
213
144
10
198
180
161
255
255
255
255
255
255
255
255
255
255
255
255
255
255
255
255
255
255
255
255
255
255
255
255
255
255
255
255
255
255
255
255
255
255
255
255
255
255
255
255
255
255
255
255
255
212
168
91
255
194
13
255
219
117
255
223
132
255
221
130
255
221
130
255
221
130
255
221
130
255
221
130
255
221
130
255
221
130
255
221
130
255
221
130
255
222
133
255
219
108
217
154
14
79
65
48
58
60
63
54
54
54
120
120
120
233
233
233
231
231
231
229
229
229
227
227
227
225
225
225
223
223
223
221
221
221
218
218
218
216
216
216
215
215
215
212
212
212
209
209
209
207
207
207
206
209
214
193
161
112
251
191
47
255
225
150
255
224
149
255
224
149
255
225
149
255
225
150
255
225
150
255
225
149
255
224
149
255
224
149
255
224
149
255
226
153
255
213
97
207
147
27
209
191
171
255
255
255
255
255
255
255
255
255
255
255
255
255
255
255
255
255
255
255
255
255
255
255
255
255
255
255
255
255
255
255
255
255
255
255
255
255
255
255
255
255
255
214
180
121
255
190
6
255
217
97
255
221
117
255
220
115
255
220
115
255
220
115
255
220
115
255
220
115
255
220
115
255
220
115
255
220
115
255
220
115
255
220
115
255
222
119
255
208
60
165
115
17
62
60
63
59
59
60
92
92
92
222
222
222
230
230
230
227
227
227
225
225
225
223
223
223
221
221
221
219
219
219
216
216
216
215
215
215
212
212
212
209
209
209
207
207
207
205
205
205
205
208
213
194
159
103
251
197
51
255
224
135
255
223
133
255
223
133
255
223
133
255
223
133
255
223
133
255
223
133
255
223
133
255
223
133
255
223
133
255
223
133
255
225
138
255
222
110
219
164
48
205
175
132
244
244
244
255
255
255
255
255
255
255
255
255
255
255
255
255
255
255
255
255
255
255
255
255
255
255
255
255
255
255
255
255
255
255
255
255
255
255
255
218
189
144
253
190
0
255
216
80
255
220
104
255
219
100
255
219
100
255
219
100
255
219
100
255
219
100
255
219
100
255
219
101
255
220
102
255
220
102
255
220
102
255
219
102
255
221
96
242
184
21
116
88
47
84
87
92
127
127
127
222
222
222
228
228
228
225
225
225
223
223
223
221
221
221
219
219
219
217
217
217
215
215
215
212
212
212
210
210
210
207
207
207
205
205
205
208
208
208
163
166
172
158
117
41
255
207
58
255
223
121
255
221
117
255
221
117
255
221
117
255
221
117
255
221
117
255
221
117
255
221
117
255
222
118
255
221
117
255
221
117
255
221
116
255
222
119
255
227
121
246
188
32
198
157
77
239
238
238
255
255
255
255
255
255
255
255
255
255
255
255
255
255
255
255
255
255
255
255
255
255
255
255
255
255
255
255
255
255
255
255
255
224
201
166
252
192
2
255
213
43
255
220
87
255
219
86
255
219
85
255
219
85
255
219
85
255
219
86
255
219
87
255
218
80
255
215
67
255
215
62
255
217
73
255
219
83
255
220
90
255
217
65
216
166
33
173
164
156
201
203
205
226
226
226
225
225
225
223
223
223
221
221
221
219
219
219
217
217
217
215
215
215
212
212
212
209
209
209
207
207
207
207
207
207
208
208
208
160
160
160
77
76
80
166
120
24
255
216
68
255
222
103
255
221
100
255
221
100
255
221
100
255
221
100
255
221
101
255
221
102
255
221
101
255
220
94
255
221
100
255
221
102
255
221
101
255
221
104
255
218
89
255
212
16
212
157
9
196
190
185
253
253
253
255
255
255
255
255
255
255
255
255
255
255
255
255
255
255
255
255
255
255
255
255
255
255
255
255
255
255
255
255
255
226
196
144
255
202
3
255
207
0
255
212
30
255
219
65
255
220
72
255
220
72
255
220
72
255
219
64
255
214
38
255
209
11
255
206
0
255
206
0
255
207
3
255
210
18
255
214
41
255
218
58
254
207
16
212
165
57
222
217
217
226
227
229
223
223
223
221
221
221
219
219
219
217
217
217
215
215
215
212
212
212
210
210
210
210
210
210
210
210
210
193
193
193
136
136
136
76
77
78
71
67
69
198
147
21
255
220
57
255
222
87
255
221
84
255
221
84
255
221
84
255
221
86
255
221
83
255
217
62
255
210
28
255
207
14
255
210
28
255
217
66
255
220
76
255
214
48
255
212
10
252
195
0
159
120
45
180
180
180
248
248
248
255
255
255
255
255
255
255
255
255
255
255
255
255
255
255
255
255
255
255
255
255
255
255
255
255
255
255
255
255
255
225
186
111
255
214
1
255
212
0
255
211
0
255
213
8
255
216
23
255
216
27
255
216
23
255
213
7
255
211
0
255
211
0
255
212
0
255
212
0
255
211
0
255
211
0
255
211
0
255
211
0
255
213
0
247
199
0
205
167
92
221
221
225
226
226
227
223
223
223
221
221
221
219
219
219
216
216
216
215
215
215
208
208
208
189
189
189
148
148
148
95
95
95
74
74
74
74
75
76
86
77
70
225
171
9
255
217
15
255
219
56
255
221
66
255
221
65
255
220
60
255
218
47
255
213
21
255
209
0
255
209
0
255
209
0
255
209
0
255
210
2
255
215
7
255
212
0
217
164
6
143
110
53
132
129
130
208
208
208
252
252
252
255
255
255
255
255
255
255
255
255
255
255
255
255
255
255
255
255
255
255
255
255
255
255
255
255
255
255
255
255
255
229
183
66
255
225
0
255
217
0
255
217
0
255
217
0
255
217
0
255
217
0
255
217
0
255
217
0
255
217
0
255
217
0
255
217
0
255
217
0
255
217
0
255
217
0
255
217
0
255
217
0
255
217
0
255
221
0
230
183
3
142
124
101
157
158
162
175
175
175
181
181
181
172
172
172
161
161
161
140
140
140
116
116
116
91
91
91
78
78
78
79
79
79
80
80
80
76
78
81
109
90
63
241
193
5
255
217
0
255
215
3
255
217
12
255
217
12
255
215
5
255
214
0
255
214
0
255
215
0
255
215
0
255
215
0
255
216
0
255
220
0
240
189
4
170
128
38
121
106
94
149
149
149
203
203
203
244
244
244
255
255
255
255
255
255
255
255
255
255
255
255
255
255
255
255
255
255
255
255
255
255
255
255
255
255
255
255
255
255
255
255
255
224
180
77
255
232
1
255
226
0
255
223
0
255
222
0
255
222
0
255
222
0
255
222
0
255
222
0
255
222
0
255
222
0
255
222
0
255
222
0
255
222
0
255
222
0
255
222
0
255
222
0
255
222
0
255
223
0
255
219
0
137
106
40
74
77
84
82
82
82
83
83
83
83
83
83
83
83
83
82
82
82
83
83
83
85
85
85
85
85
85
84
84
84
83
83
83
76
79
84
130
102
57
253
212
2
255
221
0
255
220
0
255
220
0
255
220
0
255
220
0
255
220
0
255
220
0
255
220
0
255
220
0
255
225
0
255
216
3
200
151
25
131
106
78
133
133
134
183
183
183
225
225
225
249
249
249
255
255
255
255
255
255
255
255
255
255
255
255
255
255
255
255
255
255
255
255
255
255
255
255
255
255
255
255
255
255
255
255
255
255
255
255
211
193
174
211
164
37
249
207
7
255
227
3
255
234
0
255
233
0
255
230
0
255
229
0
255
227
0
255
227
0
255
227
0
255
227
0
255
227
0
255
227
0
255
227
0
255
227
0
255
227
0
255
227
0
255
228
0
255
226
0
152
121
43
82
85
92
90
90
90
91
91
91
92
92
92
92
92
92
92
92
92
92
92
92
91
91
91
91
91
91
90
90
90
88
88
88
80
83
88
141
108
56
255
223
0
255
226
0
255
225
0
255
225
0
255
225
0
255
225
0
255
225
0
255
225
0
255
226
0
255
231
0
241
195
9
164
123
53
123
115
115
168
168
168
214
214
214
244
244
244
255
255
255
255
255
255
255
255
255
255
255
255
255
255
255
255
255
255
255
255
255
255
255
255
255
255
255
255
255
255
255
255
255
255
255
255
255
255
255
255
255
255
237
237
237
177
171
172
156
132
107
175
138
67
205
159
40
226
182
22
247
208
9
255
227
6
255
236
1
255
239
0
255
235
0
255
233
0
255
232
0
255
232
0
255
232
0
255
232
0
255
232
0
255
232
0
255
235
0
255
230
0
142
112
48
83
84
92
89
89
89
92
92
92
94
94
94
93
93
93
96
96
96
97
97
97
100
100
100
100
100
100
97
97
97
92
92
92
82
86
90
133
103
60
253
221
3
255
233
0
255
231
0
255
231
0
255
231
0
255
231
0
255
231
0
255
232
0
255
234
1
222
173
23
139
111
81
142
142
142
196
196
196
237
237
237
254
254
254
255
255
255
255
255
255
255
255
255
255
255
255
255
255
255
255
255
255
255
255
255
255
255
255
255
255
255
255
255
255
255
255
255
255
255
255
255
255
255
255
255
255
255
255
255
253
253
253
240
240
240
214
214
214
186
186
186
160
160
161
150
138
134
151
129
111
164
134
82
191
149
55
221
176
27
251
216
9
255
241
2
255
243
0
255
239
0
255
237
0
255
237
0
255
237
0
255
240
0
255
237
1
193
152
23
113
102
92
126
126
128
146
146
146
154
154
154
159
159
159
162
162
162
168
168
168
173
173
173
180
180
180
183
183
183
177
177
177
166
166
166
147
147
149
142
126
112
237
198
12
255
244
0
255
237
0
255
237
0
255
237
0
255
237
0
255
239
0
255
241
2
212
162
34
127
110
102
163
163
163
217
217
217
248
248
248
255
255
255
255
255
255
255
255
255
255
255
255
255
255
255
255
255
255
255
255
255
255
255
255
255
255
255
255
255
255
255
255
255
255
255
255
255
255
255
255
255
255
255
255
255
255
255
255
255
255
255
255
255
255
255
255
255
254
254
254
248
248
248
239
239
239
227
227
227
213
213
213
195
195
195
174
174
174
153
145
145
160
134
104
190
150
56
227
189
19
255
231
6
255
248
0
255
250
0
255
252
0
255
235
4
180
143
35
121
110
109
172
172
172
214
214
214
232
232
232
237
237
237
238
238
238
239
239
239
242
242
242
244
244
244
247
247
247
248
248
248
245
245
245
241
241
241
235
235
235
212
212
212
207
166
83
255
232
7
255
250
0
255
250
0
255
250
0
255
250
0
255
232
8
201
154
42
128
115
111
177
177
177
230
230
230
253
253
253
255
255
255
255
255
255
255
255
255
255
255
255
255
255
255
255
255
255
255
255
255
255
255
255
255
255
255
255
255
255
255
255
255
255
255
255
255
255
255
255
255
255
255
255
255
255
255
255
255
255
255
255
255
255
255
255
255
255
255
255
255
255
255
255
255
255
255
255
255
255
255
255
254
254
254
251
251
251
244
244
244
233
233
233
211
211
211
179
179
179
155
141
137
163
135
88
190
153
49
202
172
32
198
167
30
156
123
58
127
120
121
187
187
187
237
237
237
255
255
255
255
255
255
255
255
255
255
255
255
255
255
255
255
255
255
255
255
255
255
255
255
255
255
255
255
255
255
255
255
255
255
255
255
253
253
253
205
200
200
177
147
98
202
163
48
211
176
38
213
176
38
203
158
49
159
125
77
131
124
126
185
185
185
236
236
236
255
255
255
255
255
255
255
255
255
255
255
255
255
255
255
255
255
255
255
255
255
255
255
255
255
255
255
255
255
255
255
255
255
255
255
255
255
255
255
255
255
255
255
255
255
255
255
255
255
255
255
255
255
255
255
255
255
255
255
255
255
255
255
255
255
255
255
255
255
255
255
255
255
255
255
255
255
255
255
255
255
255
255
255
255
255
255
255
255
255
254
254
254
245
245
245
229
229
229
203
203
203
173
173
173
154
154
154
150
150
150
163
163
163
201
201
201
241
241
241
255
255
255
255
255
255
255
255
255
255
255
255
255
255
255
255
255
255
255
255
255
255
255
255
255
255
255
255
255
255
255
255
255
255
255
255
255
255
255
255
255
255
245
245
245
210
210
210
171
171
171
153
153
153
150
150
150
154
154
154
172
172
172
207
207
207
242
242
242
255
255
255
255
255
255
255
255
255
255
255
255
255
255
255
255
255
255
255
255
255
255
255
255
255
255
255
255
255
255
255
255
255
255
255
255
255
255
255
255
255
255
255
255
255
255
255
255
255
255
255
255
255
255
255
255
255
255
255
255
255
255
255
255
255
255
255
255
255
255
255
255
255
255
255
255
255
255
255
255
255
255
255
255
255
255
255
255
255
255
255
255
255
255
255
255
255
255
255
255
255
255
252
252
252
241
241
241
232
232
232
230
230
230
236
236
236
249
249
249
255
255
255
255
255
255
255
255
255
255
255
255
255
255
255
255
255
255
255
255
255
255
255
255
255
255
255
255
255
255
255
255
255
255
255
255
255
255
255
255
255
255
255
255
255
255
255
255
252
252
252
239
239
239
232
232
232
230
230
230
232
232
232
240
240
240
252
252
252
255
255
255
255
255
255
255
255
255
255
255
255
255
255
255
255
255
255
255
255
255
255
255
255
255
255
255
255
255
255
255
255
255
255
255
255
255
255
255
255
255
255
255
255
255
255
255
255
255
255
255